<svg xmlns="http://www.w3.org/2000/svg" width="1376" height="768" viewBox="0 0 1376 768" role="img" aria-labelledby="title desc">
  <title id="title">Five high protein calorie counting meal prep days</title>
  <desc id="desc">Five day cards with calorie and protein targets for a calorie counting meal prep week.</desc>
  <defs>
    <linearGradient id="bg" x1="0" y1="0" x2="1" y2="1">
      <stop offset="0" stop-color="#f8fafc"/>
      <stop offset="0.45" stop-color="#fff7ed"/>
      <stop offset="1" stop-color="#ecfeff"/>
    </linearGradient>
    <filter id="shadow" x="-20%" y="-20%" width="140%" height="140%">
      <feDropShadow dx="0" dy="16" stdDeviation="18" flood-color="#0f172a" flood-opacity="0.13"/>
    </filter>
  </defs>
  <rect width="1376" height="768" rx="48" fill="url(#bg)"/>
  <g transform="translate(82 72)">
    <text x="0" y="0" fill="#0f172a" font-family="Inter, Arial, sans-serif" font-size="44" font-weight="800">5 high-protein days you can log fast</text>
    <text x="0" y="42" fill="#475569" font-family="Inter, Arial, sans-serif" font-size="22">Repeat breakfasts and snacks. Rotate lunch and dinner so the week does not feel copied.</text>
  </g>
  <g transform="translate(82 160)" filter="url(#shadow)">
    <rect width="1212" height="476" rx="34" fill="#ffffff"/>
    <g transform="translate(34 38)" font-family="Inter, Arial, sans-serif">
      <g>
        <rect width="212" height="360" rx="26" fill="#fff7ed" stroke="#fed7aa" stroke-width="2"/>
        <text x="24" y="48" fill="#ea580c" font-size="22" font-weight="800">Day 1</text>
        <text x="24" y="91" fill="#0f172a" font-size="24" font-weight="800">Chicken bowl</text>
        <text x="24" y="140" fill="#334155" font-size="18">Yogurt bowl</text>
        <text x="24" y="174" fill="#334155" font-size="18">Chicken rice bowl</text>
        <text x="24" y="208" fill="#334155" font-size="18">Turkey taco plate</text>
        <rect x="24" y="272" width="164" height="52" rx="18" fill="#0f172a"/>
        <text x="48" y="305" fill="#fff" font-size="20" font-weight="800">~1,520 / 132g</text>
      </g>
      <g transform="translate(233 0)">
        <rect width="212" height="360" rx="26" fill="#f0fdfa" stroke="#99f6e4" stroke-width="2"/>
        <text x="24" y="48" fill="#0f766e" font-size="22" font-weight="800">Day 2</text>
        <text x="24" y="91" fill="#0f172a" font-size="24" font-weight="800">Turkey wrap</text>
        <text x="24" y="140" fill="#334155" font-size="18">Egg toast</text>
        <text x="24" y="174" fill="#334155" font-size="18">Turkey hummus wrap</text>
        <text x="24" y="208" fill="#334155" font-size="18">Chicken stir fry</text>
        <rect x="24" y="272" width="164" height="52" rx="18" fill="#0f172a"/>
        <text x="48" y="305" fill="#fff" font-size="20" font-weight="800">~1,590 / 126g</text>
      </g>
      <g transform="translate(466 0)">
        <rect width="212" height="360" rx="26" fill="#f0fdf4" stroke="#bbf7d0" stroke-width="2"/>
        <text x="24" y="48" fill="#15803d" font-size="22" font-weight="800">Day 3</text>
        <text x="24" y="91" fill="#0f172a" font-size="24" font-weight="800">Salmon plate</text>
        <text x="24" y="140" fill="#334155" font-size="18">Protein oats</text>
        <text x="24" y="174" fill="#334155" font-size="18">Chicken salad box</text>
        <text x="24" y="208" fill="#334155" font-size="18">Salmon potato</text>
        <rect x="24" y="272" width="164" height="52" rx="18" fill="#0f172a"/>
        <text x="48" y="305" fill="#fff" font-size="20" font-weight="800">~1,640 / 121g</text>
      </g>
      <g transform="translate(699 0)">
        <rect width="212" height="360" rx="26" fill="#eef2ff" stroke="#c7d2fe" stroke-width="2"/>
        <text x="24" y="48" fill="#4338ca" font-size="22" font-weight="800">Day 4</text>
        <text x="24" y="91" fill="#0f172a" font-size="24" font-weight="800">Tuna bento</text>
        <text x="24" y="140" fill="#334155" font-size="18">Cottage cheese bowl</text>
        <text x="24" y="174" fill="#334155" font-size="18">Tuna rice bento</text>
        <text x="24" y="208" fill="#334155" font-size="18">Turkey chili</text>
        <rect x="24" y="272" width="164" height="52" rx="18" fill="#0f172a"/>
        <text x="48" y="305" fill="#fff" font-size="20" font-weight="800">~1,560 / 118g</text>
      </g>
      <g transform="translate(932 0)">
        <rect width="212" height="360" rx="26" fill="#fdf2f8" stroke="#fbcfe8" stroke-width="2"/>
        <text x="24" y="48" fill="#be185d" font-size="22" font-weight="800">Day 5</text>
        <text x="24" y="91" fill="#0f172a" font-size="24" font-weight="800">No-cook day</text>
        <text x="24" y="140" fill="#334155" font-size="18">Greek yogurt</text>
        <text x="24" y="174" fill="#334155" font-size="18">Rotisserie salad</text>
        <text x="24" y="208" fill="#334155" font-size="18">Egg wrap</text>
        <rect x="24" y="272" width="164" height="52" rx="18" fill="#0f172a"/>
        <text x="48" y="305" fill="#fff" font-size="20" font-weight="800">~1,500 / 112g</text>
      </g>
    </g>
  </g>
  <g transform="translate(264 674)">
    <text x="0" y="0" fill="#334155" font-family="Inter, Arial, sans-serif" font-size="22">Use these as templates. Scale portions up or down after calculating your target.</text>
  </g>
</svg>
